<?xml version="1.0" encoding="utf-8"?>
<!-- Generator: Adobe Illustrator 23.1.0, SVG Export Plug-In . SVG Version: 6.00 Build 0)  -->
<svg version="1.1" id="Layer_1" xmlns="http://www.w3.org/2000/svg" xmlns:xlink="http://www.w3.org/1999/xlink" x="0px" y="0px"
	 viewBox="0 0 512 512" style="enable-background:new 0 0 512 512;" xml:space="preserve">
<g>
	<path d="M276,17.9H116.1c-5.9,0-10.3,1.4-13.3,4.1c-3,2.7-4.4,7.3-4.4,13.6v143l75.3,42c23.9,13.3,24.3,47.5,0.8,61.4l-76,45v149.5
		c0,5.9,1.5,10.3,4.4,13.3c2.9,3,7.4,4.4,13.3,4.4h82.3c6.4,0,11-1.4,14-4.1c2.9-2.7,4.4-7.2,4.4-13.6v-100c0-3.6,0.7-6.2,2-7.8
		c1.4-1.6,4.1-2.4,8.2-2.4h44.2c69.8,0,123.1-14.9,159.9-44.6c36.7-29.7,55.1-73.6,55.1-131.7C486.2,75.3,416.1,17.9,276,17.9z"/>
	<path d="M154,238.7L49.3,180.2c-10.5-5.9-23.5,1.7-23.5,13.8v120.4c0,12.3,13.3,19.9,23.9,13.6l104.7-62
		C164.9,259.9,164.7,244.6,154,238.7z"/>
</g>
</svg>
